<svg width="165" height="160" viewBox="0 0 165 160" fill="none" xmlns="http://www.w3.org/2000/svg">
<g clip-path="url(#clip0_5_105)">
<path d="M150.384 47.3672C150.384 35.2272 140.883 25.242 128.698 24.0156C125.279 15.0727 116.428 8.68622 106.013 8.68622C101.454 8.68622 97.2049 9.93081 93.5656 12.0545C89.4266 4.86704 81.5146 0.00012207 72.4206 0.00012207C60.364 0.00012207 50.3928 8.55661 48.5425 19.7425C47.5585 19.6259 46.5639 19.5453 45.5477 19.5453C32.1754 19.5453 21.3327 30.0571 21.3327 43.0266C21.3327 43.6619 21.3808 44.2842 21.4316 44.9065C14.6507 49.0681 10.137 56.3852 10.137 64.7421C10.137 72.1294 13.6614 78.71 19.1614 83.0143C19.1373 83.437 19.0945 83.8567 19.0945 84.2849C19.0945 97.2519 29.9348 107.766 43.3096 107.766C47.3177 107.766 51.0879 106.807 54.4172 105.137C59.0296 108.35 65.6344 112.369 68.8322 111.567C68.8322 111.567 70.022 129.438 69.7653 133.975C69.2759 142.61 66.6047 152.222 64.725 160H93.8388C93.8388 160 89.5471 142.659 89.3598 136.869C89.1727 131.079 91.2263 120.417 91.2263 120.417L101.326 110.287C105.213 112.864 109.909 114.329 114.973 114.329C127.493 114.329 137.79 105.093 139.055 93.2771C148.277 89.9609 154.863 81.3551 154.863 71.2557C154.863 65.292 152.553 59.8676 148.777 55.7244C149.798 53.1259 150.384 50.3154 150.384 47.3672ZM60.0108 101.26C61.952 99.4634 63.5805 97.3634 64.8237 95.0323L69.5779 104.691C69.5754 104.691 66.9897 105.798 60.0108 101.26ZM77.7872 107.224C75.327 107.657 71.1371 100.311 68.1636 94.3397C71.4606 95.9707 75.1827 96.9095 79.14 96.9095C80.1562 96.9095 81.1536 96.8292 82.1376 96.7099C81.3728 101.489 80.0253 106.827 77.7872 107.224ZM88.2396 111.925C82.5492 113.457 85.9559 102.028 87.5869 95.4108C88.7664 94.9856 89.9081 94.4854 90.9936 93.8913C91.6488 98.714 93.8092 103.065 97.0101 106.506C94.237 108.894 91.0442 111.17 88.2396 111.925Z" fill="#33843B"/>
</g>
<defs>
<clipPath id="clip0_5_105">
<rect width="165" height="160" fill="white"/>
</clipPath>
</defs>
</svg>
